<svg width="120" height="40" viewBox="0 0 120 40" fill="none" xmlns="http://www.w3.org/2000/svg">
    <g clip-path="url(#clip0_150_7158)">
        <mask id="mask0_150_7158" style="mask-type:luminance" maskUnits="userSpaceOnUse" x="0" y="0"
            width="120" height="40">
            <path d="M0 0H119.664V40H0V0Z" fill="white" />
        </mask>
        <g mask="url(#mask0_150_7158)">
            <mask id="mask1_150_7158" style="mask-type:luminance" maskUnits="userSpaceOnUse" x="0"
                y="0" width="120" height="40">
                <path d="M0 0H119.7V40H0V0Z" fill="white" />
            </mask>
            <g mask="url(#mask1_150_7158)">
                <path
                    d="M110.1 0H7.5C6.8 0 6.2 0.1 5.5 0.2C4.8 0.3 4.2 0.5 3.6 0.8C3 1.1 2.5 1.5 2 2C1.5 2.5 1.1 3 0.8 3.6C0.5 4.2 0.3 4.9 0.2 5.5C0.1 6.2 0 6.9 0 7.5V32.4C0 33.1 0.1 33.7 0.2 34.4C0.3 35.1 0.5 35.7 0.8 36.3C1.1 37 1.5 37.5 2 38C2.5 38.5 3 38.9 3.6 39.2C4.2 39.5 4.8 39.7 5.5 39.8C6.2 39.9 6.8 40 7.5 40H112.1C112.8 40 113.4 39.9 114.1 39.8C114.8 39.7 115.4 39.5 116 39.2C116.6 38.9 117.1 38.5 117.6 38C118.1 37.5 118.5 37 118.8 36.4C119.1 35.8 119.3 35.2 119.4 34.5C119.5 33.8 119.6 33.2 119.6 32.5V31.6V9.5V8.4V7.5C119.6 6.8 119.5 6.2 119.4 5.5C119.3 4.8 119.1 4.2 118.8 3.6C118.5 3 118.1 2.5 117.6 2C117.1 1.5 116.6 1.1 116 0.8C115.4 0.5 114.8 0.3 114.1 0.2C113.4 0.1 112.8 0 112.1 0L110.1 0Z"
                    fill="#BBBBBB" />
                <path
                    d="M8.40078 39.1H7.50078C6.90078 39.1 6.30078 39.1 5.60078 38.9C5.00078 38.8 4.40078 38.6 3.90078 38.4C3.40078 38.1 2.90078 37.8 2.50078 37.4C2.10078 37 1.70078 36.5 1.50078 36C1.20078 35.5 1.10078 35 1.00078 34.3C0.900781 33.6 0.800781 32.9 0.800781 32.4V8.40002V7.50002C0.800781 7.00002 0.800781 6.30002 1.00078 5.60002C1.20078 5.10002 1.30078 4.50002 1.60078 4.00002C1.90078 3.50002 2.20078 3.00002 2.60078 2.60002C3.00078 2.20002 3.50078 1.90002 4.00078 1.60002C4.50078 1.30002 5.10078 1.20002 5.70078 1.10002C6.30078 0.900024 7.00078 0.900024 7.50078 0.900024H112.101C112.601 0.900024 113.301 0.900024 114.001 1.10002C114.601 1.20002 115.101 1.40002 115.701 1.60002C116.201 1.90002 116.701 2.20002 117.101 2.60002C117.501 3.00002 117.901 3.50002 118.101 4.00002C118.401 4.50002 118.501 5.10002 118.601 5.60002C118.701 6.20002 118.801 6.90002 118.801 7.50002V32.4C118.801 33 118.701 33.6 118.601 34.3C118.501 34.9 118.301 35.5 118.101 36C117.801 36.5 117.501 37 117.101 37.4C116.701 37.8 116.201 38.2 115.701 38.4C115.201 38.7 114.701 38.8 114.001 38.9C113.401 39 112.701 39 112.101 39.1H8.40078Z"
                    fill="black" />
                <path
                    d="M24.7998 20.3C24.7998 17.5 27.0998 16.2 27.1998 16.1C25.8998 14.2 23.8998 14 23.1998 13.9C21.4998 13.7 19.8998 14.9 18.9998 14.9C18.0998 14.9 16.7998 13.9 15.3998 13.9C13.5998 13.9 11.8998 15 10.8998 16.6C8.99984 19.9 10.3998 24.9 12.2998 27.6C13.1998 28.9 14.2998 30.4 15.6998 30.4C17.0998 30.3 17.5998 29.5 19.2998 29.5C20.9998 29.5 21.3998 30.4 22.8998 30.4C24.3998 30.4 25.2998 29.1 26.1998 27.7C27.2998 26.2 27.6998 24.7 27.6998 24.6C27.6998 24.7 24.7998 23.6 24.7998 20.3ZM21.9998 12.2C22.6998 11.3 23.2998 10 23.0998 8.70002C21.9998 8.70002 20.6998 9.40002 19.8998 10.4C19.1998 11.2 18.5998 12.5 18.7998 13.8C19.9998 13.8 21.2998 13.1 21.9998 12.2ZM42.2998 27.1H37.5998L36.4998 30.5H34.4998L38.9998 18.1H40.9998L45.4998 30.5H43.4998L42.2998 27.1ZM38.0998 25.6H41.8998L39.9998 20.1H39.8998L38.0998 25.6ZM55.1998 26C55.1998 28.8 53.6998 30.6 51.3998 30.6C50.0998 30.6 49.0998 30 48.5998 29V33.5H46.6998V21.5H48.4998V23C48.9998 22 50.0998 21.4 51.3998 21.4C53.5998 21.3 55.1998 23.2 55.1998 26ZM53.1998 26C53.1998 24.2 52.2998 23 50.7998 23C49.3998 23 48.3998 24.2 48.3998 26C48.3998 27.8 49.3998 29 50.7998 29C52.2998 29 53.1998 27.8 53.1998 26ZM65.0998 26C65.0998 28.8 63.5998 30.6 61.2998 30.6C59.9998 30.6 58.9998 30 58.4998 29V33.5H56.5998V21.5H58.3998V23C58.8998 22 59.9998 21.4 61.2998 21.4C63.5998 21.3 65.0998 23.2 65.0998 26ZM63.1998 26C63.1998 24.2 62.2998 23 60.7998 23C59.3998 23 58.3998 24.2 58.3998 26C58.3998 27.8 59.3998 29 60.7998 29C62.2998 29 63.1998 27.8 63.1998 26ZM71.6998 27C71.7998 28.2 72.9998 29 74.6998 29C76.2998 29 77.3998 28.2 77.3998 27.1C77.3998 26.1 76.6998 25.6 75.0998 25.2L73.4998 24.8C71.1998 24.2 70.1998 23.2 70.1998 21.5C70.1998 19.4 72.0998 17.9 74.6998 17.9C77.2998 17.9 79.0998 19.4 79.1998 21.5H77.2998C77.1998 20.3 76.1998 19.5 74.6998 19.5C73.1998 19.5 72.1998 20.3 72.1998 21.4C72.1998 22.3 72.8998 22.8 74.4998 23.2L75.8998 23.5C78.3998 24.1 79.4998 25.1 79.4998 26.9C79.4998 29.2 77.5998 30.7 74.6998 30.7C71.8998 30.7 70.0998 29.3 69.9998 27H71.6998ZM83.2998 19.3V21.4H84.9998V22.9H83.2998V27.9C83.2998 28.7 83.5998 29 84.3998 29H84.9998V30.5C84.7998 30.6 84.3998 30.6 83.9998 30.6C82.1998 30.6 81.4998 29.9 81.4998 28.2V23H80.1998V21.5H81.4998V19.4H83.2998V19.3ZM86.0998 26C86.0998 23.2 87.7998 21.4 90.3998 21.4C92.9998 21.4 94.6998 23.2 94.6998 26C94.6998 28.9 92.9998 30.6 90.3998 30.6C87.6998 30.6 86.0998 28.8 86.0998 26ZM92.7998 26C92.7998 24 91.8998 22.9 90.3998 22.9C88.8998 22.9 87.9998 24 87.9998 26C87.9998 28 88.8998 29.1 90.3998 29.1C91.8998 29.1 92.7998 27.9 92.7998 26ZM96.1998 21.4H97.9998V23C98.2998 22 99.0998 21.4 100.2 21.4C100.5 21.4 100.7 21.4 100.8 21.5V23.2C100.7 23.1 100.3 23.1 99.9998 23.1C98.7998 23.1 98.0998 23.9 98.0998 25.2V30.6H96.1998V21.4ZM109.4 27.8C109.2 29.4 107.5 30.6 105.5 30.6C102.9 30.6 101.2 28.8 101.2 26C101.2 23.2 102.8 21.3 105.4 21.3C107.9 21.3 109.5 23 109.5 25.8V26.4H103.1V26.5C103.1 28 104.1 29.1 105.5 29.1C106.5 29.1 107.3 28.6 107.6 27.8H109.4ZM103.1 25.1H107.6C107.6 23.7 106.7 22.8 105.4 22.8C104.1 22.8 103.2 23.8 103.1 25.1ZM37.7998 8.70002C39.5998 8.70002 40.5998 9.80002 40.5998 11.7C40.5998 13.6 39.5998 14.7 37.7998 14.7H35.5998V8.70002H37.7998ZM36.5998 13.9H37.6998C38.8998 13.9 39.6998 13.1 39.6998 11.8C39.6998 10.5 38.9998 9.70002 37.6998 9.70002H36.5998V13.9ZM41.6998 12.4C41.6998 10.9 42.4998 10.1 43.7998 10.1C45.0998 10.1 45.8998 11 45.8998 12.4C45.8998 13.9 45.0998 14.7 43.7998 14.7C42.4998 14.8 41.6998 13.9 41.6998 12.4ZM44.9998 12.4C44.9998 11.4 44.5998 10.9 43.7998 10.9C42.9998 10.9 42.5998 11.5 42.5998 12.4C42.5998 13.4 42.9998 14 43.7998 14C44.5998 14 44.9998 13.4 44.9998 12.4ZM51.5998 14.7H50.6998L49.7998 11.4H49.6998L48.7998 14.7H47.8998L46.6998 10.2H47.5998L48.3998 13.6H48.4998L49.3998 10.2H50.2998L51.1998 13.6H51.2998L52.0998 10.2H52.9998L51.5998 14.7ZM53.8998 10.2H54.7998V10.9H54.8998C55.0998 10.4 55.5998 10.1 56.1998 10.1C57.1998 10.1 57.7998 10.7 57.7998 11.8V14.7H56.8998V12C56.8998 11.3 56.5998 10.9 55.8998 10.9C55.1998 10.9 54.7998 11.3 54.7998 12V14.6H53.8998V10.2ZM59.0998 8.40002H59.9998V14.7H59.0998V8.40002ZM61.1998 12.4C61.1998 10.9 61.9998 10.1 63.2998 10.1C64.5998 10.1 65.3998 11 65.3998 12.4C65.3998 13.9 64.5998 14.7 63.2998 14.7C61.9998 14.8 61.1998 13.9 61.1998 12.4ZM64.5998 12.4C64.5998 11.4 64.1998 10.9 63.3998 10.9C62.5998 10.9 62.1998 11.5 62.1998 12.4C62.1998 13.4 62.5998 14 63.3998 14C64.0998 14 64.5998 13.4 64.5998 12.4ZM66.3998 13.4C66.3998 12.6 66.9998 12.1 68.0998 12.1L69.2998 12V11.6C69.2998 11.1 68.9998 10.9 68.3998 10.9C67.8998 10.9 67.5998 11.1 67.4998 11.4H66.5998C66.6998 10.6 67.3998 10.1 68.3998 10.1C69.4998 10.1 70.1998 10.7 70.1998 11.6V14.7H69.2998V14.1H69.1998C68.8998 14.6 68.3998 14.8 67.7998 14.8C66.9998 14.8 66.3998 14.2 66.3998 13.4ZM69.2998 13V12.6L68.1998 12.7C67.5998 12.7 67.2998 13 67.2998 13.3C67.2998 13.7 67.6998 13.9 68.0998 13.9C68.7998 14 69.2998 13.6 69.2998 13ZM71.2998 12.4C71.2998 11 71.9998 10.1 73.1998 10.1C73.7998 10.1 74.2998 10.4 74.5998 10.9H74.6998V8.40002H75.5998V14.7H74.6998V14H74.5998C74.2998 14.5 73.7998 14.8 73.1998 14.8C72.0998 14.8 71.2998 13.9 71.2998 12.4ZM72.2998 12.4C72.2998 13.4 72.7998 13.9 73.4998 13.9C74.1998 13.9 74.6998 13.3 74.6998 12.4C74.6998 11.5 74.1998 10.9 73.4998 10.9C72.6998 10.9 72.2998 11.5 72.2998 12.4ZM79.1998 12.4C79.1998 10.9 79.9998 10.1 81.2998 10.1C82.5998 10.1 83.3998 11 83.3998 12.4C83.3998 13.9 82.5998 14.7 81.2998 14.7C79.9998 14.8 79.1998 13.9 79.1998 12.4ZM82.5998 12.4C82.5998 11.4 82.1998 10.9 81.3998 10.9C80.5998 10.9 80.1998 11.5 80.1998 12.4C80.1998 13.4 80.5998 14 81.3998 14C82.0998 14 82.5998 13.4 82.5998 12.4ZM84.6998 10.2H85.5998V10.9H85.6998C85.8998 10.4 86.3998 10.1 86.9998 10.1C87.9998 10.1 88.5998 10.7 88.5998 11.8V14.7H87.6998V12C87.6998 11.3 87.3998 10.9 86.6998 10.9C85.9998 10.9 85.5998 11.3 85.5998 12V14.6H84.6998V10.2ZM93.4998 9.10003V10.2H94.4998V11H93.4998V13.3C93.4998 13.8 93.6998 14 94.0998 14H94.3998V14.7H93.8998C92.8998 14.7 92.4998 14.4 92.4998 13.5V11H91.7998V10.3H92.4998V9.10003H93.4998ZM95.6998 8.40002H96.5998V10.9H96.6998C96.8998 10.4 97.3998 10.1 98.0998 10.1C99.0998 10.1 99.6998 10.7 99.6998 11.8V14.7H98.7998V12C98.7998 11.3 98.4998 10.9 97.7998 10.9C97.0998 10.9 96.6998 11.4 96.6998 12V14.6H95.7998V8.40002H95.6998ZM104.799 13.5C104.599 14.3 103.899 14.8 102.799 14.8C101.499 14.8 100.699 13.9 100.699 12.5C100.699 11.1 101.499 10.1 102.799 10.1C104.099 10.1 104.799 11 104.799 12.4V12.7H101.599C101.599 13.5 102.099 14 102.799 14C103.299 14 103.699 13.8 103.899 13.5H104.799ZM101.599 12H103.899C103.899 11.3 103.399 10.8 102.799 10.8C102.099 10.9 101.699 11.3 101.599 12Z"
                    fill="white" />
            </g>
        </g>
    </g>
    <defs>
        <clipPath id="clip0_150_7158">
            <rect width="120" height="40" fill="white" />
        </clipPath>
    </defs>
</svg>