<svg width="17" height="17" viewBox="0 0 17 17" fill="none" xmlns="http://www.w3.org/2000/svg">
    <g clip-path="url(#clip0_239_559)">
        <path d="M12.0633 6.9275C12.1572 6.8268 12.2083 6.6936 12.2058 6.55597C12.2034 6.41834 12.1477 6.28702 12.0503 6.18969C11.953 6.09235 11.8217 6.0366 11.684 6.03417C11.5464 6.03174 11.4132 6.08283 11.3125 6.17667L7.43792 10.0513L5.68834 8.30167C5.58763 8.20783 5.45443 8.15674 5.3168 8.15917C5.17917 8.1616 5.04786 8.21735 4.95052 8.31469C4.85319 8.41202 4.79743 8.54334 4.795 8.68097C4.79258 8.8186 4.84366 8.9518 4.9375 9.0525L7.0625 11.1775C7.16211 11.277 7.29714 11.3329 7.43792 11.3329C7.5787 11.3329 7.71373 11.277 7.81334 11.1775L12.0633 6.9275Z" fill="#219CDB"/>
        <path fill-rule="evenodd" clip-rule="evenodd" d="M10.0122 0.84999C9.57343 0.527976 9.04339 0.35434 8.49917 0.35434C7.95494 0.35434 7.4249 0.527976 6.98617 0.84999L6.01221 1.56541C5.81798 1.70776 5.59222 1.80108 5.35417 1.83741L4.15992 2.02086C3.62203 2.10334 3.12448 2.35526 2.73963 2.73998C2.35477 3.1247 2.10269 3.62217 2.02004 4.16003L1.83658 5.35499C1.80025 5.59305 1.70694 5.8188 1.56458 6.01303L0.849166 6.98699C0.527152 7.42573 0.353516 7.95576 0.353516 8.49999C0.353516 9.04422 0.527152 9.57425 0.849166 10.013L1.56458 10.9869C1.70625 11.181 1.80046 11.407 1.83658 11.645L2.02004 12.8392C2.10251 13.3771 2.35443 13.8747 2.73916 14.2595C3.12388 14.6444 3.62135 14.8965 4.15921 14.9791L5.35417 15.1626C5.59217 15.1987 5.81812 15.2922 6.01221 15.4346L6.98617 16.15C7.4249 16.472 7.95494 16.6456 8.49917 16.6456C9.04339 16.6456 9.57343 16.472 10.0122 16.15L10.9861 15.4346C11.1804 15.2922 11.4061 15.1989 11.6442 15.1626L12.8384 14.9791C13.3763 14.8966 13.8739 14.6447 14.2587 14.26C14.6436 13.8753 14.8956 13.3778 14.9783 12.8399L15.1617 11.645C15.1981 11.4069 15.2914 11.1812 15.4338 10.9869L16.1492 10.013C16.4712 9.57425 16.6448 9.04422 16.6448 8.49999C16.6448 7.95576 16.4712 7.42573 16.1492 6.98699L15.4338 6.01303C15.2914 5.8188 15.1981 5.59305 15.1617 5.35499L14.9783 4.16074C14.8958 3.62285 14.6439 3.1253 14.2592 2.74045C13.8745 2.3556 13.377 2.10352 12.8391 2.02086L11.6442 1.83741C11.4061 1.80108 11.1804 1.70776 10.9861 1.56541L10.0122 0.84999ZM7.61517 1.70636C7.87154 1.5183 8.18121 1.41691 8.49917 1.41691C8.81712 1.41691 9.12679 1.5183 9.38317 1.70636L10.3578 2.42178C10.69 2.66555 11.0761 2.82545 11.4834 2.88786L12.6776 3.07061C12.992 3.11895 13.2828 3.26633 13.5076 3.49131C13.7325 3.71628 13.8797 4.00712 13.9278 4.32153L14.112 5.51578C14.1741 5.92322 14.3338 6.3096 14.5774 6.64203L15.2928 7.61599C15.4809 7.87237 15.5823 8.18203 15.5823 8.49999C15.5823 8.81794 15.4809 9.12761 15.2928 9.38399L14.5774 10.3587C14.3336 10.6908 14.1737 11.0769 14.1113 11.4842L13.9285 12.6784C13.8802 12.9928 13.7328 13.2836 13.5078 13.5084C13.2829 13.7333 12.992 13.8805 12.6776 13.9287L11.4834 14.1128C11.0759 14.1749 10.6896 14.3346 10.3571 14.5782L9.38317 15.2936C9.12679 15.4817 8.81712 15.5831 8.49917 15.5831C8.18121 15.5831 7.87154 15.4817 7.61517 15.2936L6.6405 14.5782C6.30835 14.3344 5.92221 14.1745 5.51496 14.1121L4.32071 13.9294C4.0062 13.8812 3.71528 13.7338 3.49029 13.5089C3.26531 13.2839 3.11799 12.993 3.06979 12.6784L2.88704 11.4842C2.82473 11.0767 2.66483 10.6903 2.42096 10.3579L1.70554 9.38399C1.51748 9.12761 1.41608 8.81794 1.41608 8.49999C1.41608 8.18203 1.51748 7.87237 1.70554 7.61599L2.42096 6.64132C2.66473 6.30917 2.82462 5.92303 2.88704 5.51578L3.06979 4.32153C3.11799 4.00702 3.26531 3.71611 3.49029 3.49112C3.71528 3.26613 4.0062 3.11882 4.32071 3.07061L5.51496 2.88786C5.92246 2.82556 6.30885 2.66565 6.64121 2.42178L7.61517 1.70636Z" fill="#219CDB"/>
    </g>
    <defs>
        <clipPath id="clip0_239_559">
            <rect width="17" height="17" fill="white"/>
        </clipPath>
    </defs>
</svg>