<svg width="32" height="32" viewBox="0 0 32 32" fill="none" xmlns="http://www.w3.org/2000/svg">
    <path d="M15.9993 0.166656C7.27518 0.166656 0.166016 7.27582 0.166016 16C0.166016 24.7242 7.27518 31.8333 15.9993 31.8333C24.7235 31.8333 31.8327 24.7242 31.8327 16C31.8327 7.27582 24.7235 0.166656 15.9993 0.166656ZM21.3193 19.6417C21.7785 20.1008 21.7785 20.8608 21.3193 21.32C21.0818 21.5575 20.781 21.6683 20.4802 21.6683C20.1793 21.6683 19.8785 21.5575 19.641 21.32L15.9993 17.6783L12.3577 21.32C12.1202 21.5575 11.8193 21.6683 11.5185 21.6683C11.2177 21.6683 10.9169 21.5575 10.6793 21.32C10.2202 20.8608 10.2202 20.1008 10.6793 19.6417L14.321 16L10.6793 12.3583C10.2202 11.8992 10.2202 11.1392 10.6793 10.68C11.1385 10.2208 11.8985 10.2208 12.3577 10.68L15.9993 14.3217L19.641 10.68C20.1002 10.2208 20.8602 10.2208 21.3193 10.68C21.7785 11.1392 21.7785 11.8992 21.3193 12.3583L17.6777 16L21.3193 19.6417Z" fill="#E83939"/>
</svg>
