<svg width="7" height="10" viewBox="0 0 7 10" fill="none" xmlns="http://www.w3.org/2000/svg">
    <path
        d="M4.12628 2.1249C4.67819 2.1249 5.1256 1.72465 5.1256 1.23091C5.1256 0.737169 4.67819 0.336914 4.12628 0.336914C3.57437 0.336914 3.12695 0.737169 3.12695 1.23091C3.12695 1.72465 3.57437 2.1249 4.12628 2.1249Z"
        fill="#FFB048" />
    <path
        d="M6.66142 4.7176C5.84206 4.47563 5.16373 3.8985 4.79057 3.12996C4.70609 2.95595 4.64481 2.83042 4.63778 2.81786C4.4629 2.53848 4.13812 2.34851 3.76337 2.34851C3.61348 2.34851 3.46358 2.38204 3.33866 2.43791L1.58984 3.05253C1.46492 3.09723 1.36499 3.18663 1.31503 3.29838L0.690447 4.63937C0.590514 4.86287 0.702939 5.13107 0.965262 5.22047C1.02772 5.24282 1.09018 5.25399 1.15264 5.25399C1.3525 5.25399 1.53987 5.15342 1.61482 4.97462L2.08303 3.91216C2.11104 3.8486 2.16439 3.79967 2.23014 3.77727C2.4142 3.71454 2.59566 3.87814 2.55228 4.06769L1.90069 6.91465C1.82796 7.23245 1.6737 7.52582 1.4531 7.76587L0.115834 9.22109C-0.0590476 9.41106 -0.0340645 9.69044 0.178292 9.84689C0.265733 9.91394 0.378158 9.94746 0.490582 9.94746C0.640481 9.94746 0.777888 9.89159 0.877821 9.77984L2.62664 7.8801C2.67661 7.82422 2.71408 7.75718 2.72657 7.69013L2.76456 7.52588C2.89196 6.97502 3.52742 6.71756 4.00232 7.02439C4.23496 7.1747 4.37546 7.43276 4.37546 7.70973V9.50046C4.37546 9.74631 4.60031 9.94746 4.87512 9.94746C5.14994 9.94746 5.37479 9.74631 5.37479 9.50046V7.04198C5.37479 6.89671 5.29984 6.76261 5.17492 6.68438L4.21426 6.05533C4.06324 5.95644 3.98932 5.77431 4.0287 5.59814L4.18139 4.91518C4.22067 4.73946 4.45958 4.71189 4.53785 4.87404C4.60031 4.98579 4.70024 5.07519 4.83765 5.11989L6.33664 5.56689C6.3866 5.57806 6.43657 5.58924 6.49903 5.58924C6.71139 5.58924 6.89876 5.46632 6.97371 5.28752C7.06115 5.05284 6.92374 4.79582 6.66142 4.7176Z"
        fill="#FFB048" />
</svg>