<svg width="14" height="12" viewBox="0 0 14 12" fill="none" xmlns="http://www.w3.org/2000/svg">
    <path fill-rule="evenodd" clip-rule="evenodd"
        d="M1.02167 1.06529C1.67604 0.411119 2.56344 0.0436242 3.48872 0.0436242C4.414 0.0436242 5.3014 0.411119 5.95577 1.06529L6.97819 2.08683L8.0006 1.06529C8.32249 0.732013 8.70754 0.466178 9.13327 0.283298C9.559 0.100419 10.0169 0.00415795 10.4802 0.000131751C10.9435 -0.00389445 11.403 0.0843951 11.8319 0.259849C12.2607 0.435302 12.6503 0.694405 12.978 1.02204C13.3056 1.34968 13.5647 1.73928 13.7402 2.16812C13.9156 2.59697 14.0039 3.05646 13.9999 3.51979C13.9958 3.98312 13.8996 4.44101 13.7167 4.86673C13.5338 5.29246 13.268 5.67751 12.9347 5.9994L6.97819 11.9568L1.02167 5.9994C0.367494 5.34503 0 4.45763 0 3.53235C0 2.60706 0.367494 1.71966 1.02167 1.06529Z"
        fill="#E83939" />
</svg>