<svg width="12" height="12" viewBox="0 0 12 12" fill="none" xmlns="http://www.w3.org/2000/svg">
<path d="M9.03678 10.287C8.59709 10.6554 8.07636 10.9143 7.51728 11.0425C7.46378 11.06 7.42778 10.99 7.46378 10.955C8.66128 9.81252 8.00328 8.57602 7.51728 8.01852C7.17078 7.62052 6.67728 6.96502 6.71328 6.08602C6.71328 5.99802 6.62328 5.92752 6.55228 5.98052C5.87278 6.33202 5.40828 7.10552 5.28328 7.73802C5.08628 7.54502 5.01478 7.24602 5.01478 6.98252C5.01478 6.89452 4.90778 6.82402 4.81828 6.89452C4.17478 7.47452 3.06678 9.44302 4.85428 10.9895C4.88978 11.025 4.85428 11.0955 4.81828 11.078C4.27628 10.9359 3.76656 10.6912 3.31678 10.357C0.403283 8.10702 2.29828 4.11702 3.53178 2.79902C3.69228 2.64052 3.97828 2.74602 3.97828 2.97452C3.99628 3.44952 4.13928 3.97652 4.51428 4.32802C4.80028 3.13302 5.75328 1.77552 7.11178 1.10752C7.29028 1.01952 7.50478 1.16002 7.48678 1.35352C7.45178 2.98852 8.51828 4.02952 9.44778 5.38302C10.2703 6.59552 10.8063 8.82802 9.03678 10.287Z" fill="white"/>
</svg>
