<svg width="15" height="11" viewBox="0 0 15 11" fill="none" xmlns="http://www.w3.org/2000/svg">
    <path
        d="M13.8267 7.28557C13.8238 6.34927 13.6045 5.42572 13.1853 4.58392H13.6466C13.758 4.5839 13.8678 4.558 13.967 4.50836C14.0661 4.45872 14.1518 4.38676 14.2169 4.2984C14.282 4.21004 14.3248 4.10782 14.3416 4.00014C14.3584 3.89247 14.3488 3.78244 14.3136 3.6791L14.1573 3.22076C14.1107 3.08378 14.0213 2.96463 13.9015 2.88021C13.7818 2.7958 13.6379 2.75043 13.4903 2.75055H11.9531V2.3401C11.9531 2.30045 11.9426 2.26147 11.9226 2.22698C11.9026 2.1925 11.8737 2.16369 11.8389 2.14338L11.4157 1.89608C11.4604 1.80514 11.4839 1.7056 11.4844 1.60469C11.4844 1.46871 11.4431 1.33579 11.3659 1.22273C11.2886 1.10966 11.1788 1.02154 11.0503 0.969508C10.9218 0.917472 10.7805 0.903857 10.6441 0.930385C10.5077 0.956912 10.3824 1.02239 10.2841 1.11854C10.1857 1.21469 10.1188 1.3372 10.0916 1.47056C10.0645 1.60393 10.0784 1.74216 10.1316 1.86779C10.1849 1.99342 10.275 2.10079 10.3906 2.17634C10.5062 2.25188 10.6422 2.2922 10.7812 2.2922C10.8816 2.29187 10.9807 2.27031 11.0718 2.22902L11.4844 2.47013V4.12558H10.7812C10.7191 4.12558 10.6595 4.14972 10.6155 4.1927C10.5716 4.23568 10.5469 4.29397 10.5469 4.35475C10.5469 4.41553 10.5716 4.47382 10.6155 4.5168C10.6595 4.55977 10.7191 4.58392 10.7812 4.58392H11.7188V5.59202C11.7185 5.94379 11.6265 6.28969 11.4514 6.59701L11.0798 7.2482C10.8356 7.3936 10.6176 7.57745 10.4347 7.79232H8.67188C8.48546 7.79212 8.30673 7.71962 8.17492 7.59073C8.0431 7.46184 7.96895 7.28708 7.96875 7.1048V6.64646C7.96848 6.34973 7.84993 6.0648 7.63828 5.85215C7.76775 5.77326 7.86739 5.65524 7.92211 5.516C7.97683 5.37676 7.98364 5.22387 7.94151 5.0805C7.89939 4.93713 7.81062 4.8111 7.68865 4.72149C7.56669 4.63188 7.41818 4.58358 7.26562 4.58392H2.10938C1.92296 4.58412 1.74423 4.65662 1.61242 4.78551C1.4806 4.9144 1.40645 5.08915 1.40625 5.27143C1.40695 5.42918 1.46366 5.5818 1.5667 5.70319C1.10225 5.89738 0.70626 6.22052 0.42778 6.6326C0.1493 7.04467 0.000565865 7.52758 0 8.02149L0 9.39652C0 9.4573 0.024693 9.51559 0.0686469 9.55857C0.112601 9.60155 0.172215 9.62569 0.234375 9.62569H0.95625C1.01218 10.0073 1.20698 10.3564 1.50489 10.6089C1.8028 10.8615 2.18385 11.0005 2.57812 11.0005C2.9724 11.0005 3.35345 10.8615 3.65136 10.6089C3.94927 10.3564 4.14407 10.0073 4.2 9.62569H10.8C10.8559 10.0073 11.0507 10.3564 11.3486 10.6089C11.6466 10.8615 12.0276 11.0005 12.4219 11.0005C12.8161 11.0005 13.1972 10.8615 13.4951 10.6089C13.793 10.3564 13.9878 10.0073 14.0437 9.62569H14.7656C14.8278 9.62569 14.8874 9.60155 14.9314 9.55857C14.9753 9.51559 15 9.4573 15 9.39652C14.9997 8.97696 14.8922 8.56413 14.6873 8.19549C14.4824 7.82685 14.1866 7.51408 13.8267 7.28557ZM10.7812 1.83386C10.7349 1.83386 10.6896 1.82042 10.651 1.79524C10.6125 1.77006 10.5825 1.73426 10.5647 1.69239C10.547 1.65051 10.5423 1.60443 10.5514 1.55998C10.5604 1.51552 10.5827 1.47469 10.6155 1.44264C10.6483 1.41059 10.6901 1.38876 10.7355 1.37992C10.781 1.37108 10.8281 1.37562 10.8709 1.39296C10.9138 1.41031 10.9504 1.43968 10.9761 1.47737C11.0019 1.51505 11.0156 1.55936 11.0156 1.60469C11.0156 1.66545 10.9909 1.72371 10.9469 1.76668C10.903 1.80964 10.8434 1.83381 10.7812 1.83386ZM11.9531 3.20889H13.4903C13.5395 3.20884 13.5874 3.22396 13.6273 3.25208C13.6672 3.28021 13.697 3.31991 13.7125 3.36555L13.8689 3.82412C13.8806 3.85855 13.8838 3.89522 13.8782 3.93111C13.8727 3.96699 13.8584 4.00106 13.8367 4.03051C13.815 4.05995 13.7864 4.08393 13.7534 4.10046C13.7203 4.11699 13.6837 4.1256 13.6466 4.12558H11.9531V3.20889ZM11.8607 6.82036C12.0747 6.44475 12.1872 6.02198 12.1875 5.59202V4.58392H12.6616C13.0793 5.34342 13.3149 6.18586 13.3507 7.04751C12.8511 6.85479 12.3017 6.82315 11.7825 6.95722L11.8607 6.82036ZM2.10938 5.04226H7.26562C7.32779 5.04226 7.3874 5.06641 7.43135 5.10938C7.47531 5.15236 7.5 5.21065 7.5 5.27143C7.5 5.33221 7.47531 5.3905 7.43135 5.43348C7.3874 5.47646 7.32779 5.5006 7.26562 5.5006H2.10938C2.04721 5.5006 1.9876 5.47646 1.94365 5.43348C1.89969 5.3905 1.875 5.33221 1.875 5.27143C1.875 5.21065 1.89969 5.15236 1.94365 5.10938C1.9876 5.06641 2.04721 5.04226 2.10938 5.04226ZM2.57812 10.5424C2.30811 10.542 2.04648 10.4506 1.83733 10.2837C1.62819 10.1167 1.48431 9.8843 1.42995 9.62569H3.7263C3.67194 9.8843 3.52806 10.1167 3.31892 10.2837C3.10977 10.4506 2.84814 10.542 2.57812 10.5424ZM0.482578 9.16735C0.540012 8.66319 0.785519 8.19743 1.17213 7.85917C1.55875 7.52091 2.05933 7.3339 2.57812 7.3339C3.09692 7.3339 3.5975 7.52091 3.98412 7.85917C4.37073 8.19743 4.61624 8.66319 4.67367 9.16735H0.482578ZM9.85563 9.16735H5.14437C5.09722 8.6534 4.88964 8.16605 4.54974 7.77132C4.20985 7.37659 3.75407 7.09357 3.24417 6.96061C2.73426 6.82764 2.19488 6.85116 1.6991 7.02798C1.20332 7.20479 0.775116 7.52635 0.4725 7.9491C0.491897 7.41543 0.722128 6.90989 1.1148 6.53876C1.50747 6.16762 2.032 5.95979 2.57812 5.95895H6.79688C6.98329 5.95915 7.16202 6.03165 7.29383 6.16054C7.42565 6.28943 7.4998 6.46418 7.5 6.64646V7.1048C7.50037 7.4086 7.62395 7.69984 7.84364 7.91465C8.06333 8.12947 8.36119 8.2503 8.67188 8.25066H10.1284C9.97803 8.53624 9.88544 8.84749 9.85563 9.16735ZM12.4219 10.5424C12.1519 10.542 11.8902 10.4506 11.6811 10.2837C11.4719 10.1167 11.3281 9.8843 11.2737 9.62569H13.5701C13.5157 9.8843 13.3718 10.1167 13.1627 10.2837C12.9535 10.4506 12.6919 10.542 12.4219 10.5424ZM10.3256 9.16735C10.3832 8.66314 10.6289 8.19739 11.0156 7.85915C11.4023 7.52091 11.903 7.33392 12.4219 7.33392C12.9407 7.33392 13.4414 7.52091 13.8281 7.85915C14.2149 8.19739 14.4606 8.66314 14.5182 9.16735H10.3256ZM2.10938 4.12558H7.26562C7.32779 4.12558 7.3874 4.10143 7.43135 4.05845C7.47531 4.01547 7.5 3.95718 7.5 3.8964V2.97972C7.5 2.91894 7.47531 2.86065 7.43135 2.81767C7.3874 2.77469 7.32779 2.75055 7.26562 2.75055H2.10938C2.04721 2.75055 1.9876 2.77469 1.94365 2.81767C1.89969 2.86065 1.875 2.91894 1.875 2.97972V3.8964C1.875 3.95718 1.89969 4.01547 1.94365 4.05845C1.9876 4.10143 2.04721 4.12558 2.10938 4.12558ZM2.34375 3.20889H7.03125V3.66723H2.34375V3.20889ZM2.8125 2.2922H6.5625C6.62466 2.2922 6.68427 2.26806 6.72823 2.22508C6.77218 2.1821 6.79688 2.12381 6.79688 2.06303C6.79688 2.00225 6.77218 1.94396 6.72823 1.90098C6.68427 1.858 6.62466 1.83386 6.5625 1.83386H6.54609C6.49352 1.43062 6.30548 1.05586 6.01151 0.768414C5.71754 0.480969 5.33428 0.297112 4.92188 0.245702V0.22966C4.92188 0.16888 4.89718 0.110589 4.85323 0.0676111C4.80927 0.0246331 4.74966 0.000488281 4.6875 0.000488281C4.62534 0.000488281 4.56573 0.0246331 4.52177 0.0676111C4.47782 0.110589 4.45312 0.16888 4.45312 0.22966V0.245702C4.04072 0.297112 3.65746 0.480969 3.36349 0.768414C3.06952 1.05586 2.88148 1.43062 2.82891 1.83386H2.8125C2.75034 1.83386 2.69073 1.858 2.64677 1.90098C2.60282 1.94396 2.57812 2.00225 2.57812 2.06303C2.57812 2.12381 2.60282 2.1821 2.64677 2.22508C2.69073 2.26806 2.75034 2.2922 2.8125 2.2922ZM4.6875 0.688003C5.01952 0.688542 5.34066 0.803847 5.59414 1.01353C5.84761 1.22322 6.01711 1.51379 6.07266 1.83386H3.30234C3.35789 1.51379 3.52739 1.22322 3.78086 1.01353C4.03434 0.803847 4.35548 0.688542 4.6875 0.688003Z"
        fill="black" />
</svg>