<svg width="136" height="60" viewBox="0 0 136 60" fill="none" xmlns="http://www.w3.org/2000/svg">
    <g clip-path="url(#clip0_150_7137)">
        <path
            d="M111.192 3.94895C111.371 5.7057 110.295 7.07207 109.04 7.44744C107.799 7.82282 106.529 7.83783 105.438 7.04204C104.885 6.65165 104.436 6.02102 104.347 5.34534C104.153 3.79879 104.212 2.28228 105.378 1.006C106.648 -0.375379 109.144 -0.330334 110.295 1.2012C110.923 2.01201 111.311 2.92792 111.192 3.94895ZM107.605 2.43243C106.678 2.43243 106.29 2.86786 106.275 3.88889C106.26 4.87988 106.828 5.55555 107.635 5.54054C108.412 5.52552 109.219 4.72973 109.204 3.99399C109.189 3.03303 108.561 2.41741 107.605 2.43243Z"
            fill="white" />
        <path
            d="M107.26 15.7958C107.29 16.7718 106.244 17.9279 105.302 17.9429C104.226 17.958 103.165 16.982 103.09 15.9159C103.03 14.9099 104.151 13.7537 105.168 13.7688C106.169 13.7838 107.23 14.8198 107.26 15.7958Z"
            fill="white" />
        <path
            d="M112.657 15.8859C112.642 16.8769 111.625 17.8979 110.609 17.943C109.593 17.988 108.457 16.8619 108.487 15.8409C108.517 14.8349 109.533 13.8138 110.534 13.7838C111.536 13.7538 112.672 14.8499 112.657 15.8859Z"
            fill="white" />
        <path
            d="M115.914 34.9549V34.9399H113.702C113.493 34.9399 113.299 34.9549 113.09 34.9249C112.477 34.8799 112.417 34.7297 112.746 34.2192C113.209 33.4985 113.762 32.8528 114.121 32.057C114.868 30.4655 115.018 28.6486 114.539 26.9519C114.121 25.4805 113.284 24.1742 112.133 23.1982C110.385 21.6817 108.412 21.3063 106.26 22.042C104.691 22.5676 103.375 23.6336 102.524 25.045C101.029 27.4925 100.865 30 102.135 32.6126C102.434 33.2282 102.972 33.6186 103.301 34.1742C103.435 34.3994 103.794 34.5796 103.674 34.8649C103.629 34.97 103.226 34.9399 102.987 34.9399C101.731 34.9549 100.476 34.9249 99.2207 34.9399V38.4234L107.007 38.4384C107.082 36.8769 107.142 35.7507 107.157 35.6006C107.171 35.3153 107.171 35.0901 106.843 34.9399C105.557 34.3393 104.9 33.2582 104.795 31.8919C104.616 29.5495 104.855 27.2522 106.095 25.1652C106.439 24.5646 106.902 24.0991 107.59 23.8889C107.889 23.7838 108.218 23.7838 108.531 23.8889C109.204 24.0991 109.667 24.5646 110.026 25.1652C111.251 27.2522 111.491 29.5345 111.326 31.8919C111.222 33.2582 110.549 34.3393 109.279 34.9399C108.95 35.0901 108.95 35.3153 108.965 35.6006C108.965 35.6907 109.025 36.8318 109.114 38.4534C112.208 38.4534 115.227 38.4534 117.065 38.4384V34.9549C116.662 34.9549 116.288 34.9549 115.914 34.9549Z"
            fill="white" />
        <path
            d="M85.1721 14.4294C85.1123 15.8409 84.1708 17.1622 82.7659 18.1982C81.4209 19.1892 79.8666 19.6096 78.2675 19.9249C77.6398 20.0451 77.027 20.2703 76.3545 20.1952C75.9211 20.1502 75.667 19.985 75.6073 19.5496C75.5774 19.2643 75.6372 18.979 75.4877 18.7087C75.2635 18.3033 75.5027 18.2282 75.8464 18.1832C77.042 18.003 78.2376 17.8679 79.3884 17.4625C79.5827 17.4024 79.762 17.3123 79.9563 17.2372C80.315 17.1171 80.1356 16.9219 79.9712 16.8318C79.3136 16.5015 78.8952 15.976 78.5813 15.3303C77.7444 13.5736 78.5963 11.4415 80.2701 10.6607C82.9154 9.45947 85.202 11.4865 85.1721 14.4294ZM82.9602 14.0841C82.9453 13.5886 82.7211 13.1381 82.3774 12.7928C82.1084 12.5225 81.7049 12.4475 81.3761 12.6126C80.7484 12.8679 80.3598 13.6937 80.569 14.3243C80.7932 14.985 81.2714 15.5255 81.9141 15.8108C82.0785 15.8859 82.2279 15.9159 82.3176 15.7357C82.5866 15.2102 82.9901 14.7297 82.9602 14.0841Z"
            fill="white" />
        <path
            d="M97.9345 34.97C96.2905 35.03 94.811 34.1291 94.2281 32.2673C93.6453 30.3453 93.5108 28.3784 93.2866 26.4114C93.2567 25.961 93.2567 25.5105 93.2716 25.0601C93.3015 24.8348 93.1371 24.6396 92.913 24.6096C92.8831 24.6096 92.8532 24.6096 92.8233 24.6096C92.1657 24.6096 91.5081 24.6396 90.8655 24.6096C90.0883 24.5796 89.9389 24.7748 90.1332 25.4805C90.3573 26.3363 90.2976 27.1772 90.3424 28.033C90.3275 28.1982 90.3424 28.3634 90.3723 28.5285C90.7758 29.7297 90.5965 30.976 90.5666 32.1772C90.5217 33.964 89.4457 34.9399 87.6971 34.97C87.0097 34.985 86.3072 34.985 85.6198 34.97C84.1552 34.9249 83.5125 34.2493 83.4976 32.7327C83.4826 31.1862 83.8712 29.6697 84.1103 28.1532C84.185 27.6727 84.0206 27.5826 83.7217 27.4475C83.1538 27.1922 82.5261 27.3273 81.9433 27.1171C81.2558 26.8769 80.8523 27.1772 80.8224 27.958C80.7776 29.0691 80.4338 30.1051 80.2545 31.1862C80.12 32.1472 79.8061 33.0931 79.3279 33.949C78.9692 34.5646 78.4611 34.9249 77.7587 34.9399C76.7424 34.97 75.7112 34.985 74.6949 34.9399C73.6189 34.8799 72.9762 34.0991 72.9314 33.003C72.8866 31.982 73.0211 30.961 73.32 30C73.4545 29.5796 73.574 29.1441 73.6488 28.7087C73.7086 28.4234 73.6936 28.1381 73.32 28.018C72.5428 27.7928 71.7806 27.5375 71.0035 27.3273C70.7644 27.2673 70.5402 27.3423 70.4804 27.6727C70.331 28.3934 70.1516 29.0991 69.9872 29.8048C69.6435 31.1862 69.2998 32.5526 68.6123 33.8288C68.2686 34.4595 67.8053 34.9099 67.1178 34.9399C66.4303 34.97 65.7578 34.97 65.0703 34.985V38.4384H65.8624C66.7591 38.4384 67.611 38.2132 68.4778 37.988C69.0756 37.8378 69.6136 37.5225 70.0321 37.0721C70.2861 36.8018 70.5551 36.5616 70.8092 36.2763C71.0633 35.991 71.0932 36.0661 71.3024 36.3514C72.0497 37.3574 72.9912 38.0631 74.2914 38.2733C75.6962 38.4985 77.116 38.4835 78.5059 38.2282C79.7314 38.018 80.7477 37.5526 81.48 36.5465C81.6593 36.3063 81.7789 36.2613 81.8835 36.5015C82.3617 37.4775 83.2584 37.8679 84.185 38.1682C85.6048 38.6186 87.0395 38.5135 88.5191 38.2432C90.1929 37.9429 91.4633 37.1171 92.2703 35.6306C92.5692 35.0751 92.6589 35.4655 92.7934 35.6757C94.0189 37.5375 95.7973 38.4384 98.0092 38.4384H99.1899V34.955C98.7714 34.9399 98.353 34.955 97.9345 34.97Z"
            fill="white" />
        <path
            d="M20.4158 36.4264C20.5503 33.8589 19.7432 31.4565 19.0558 29.039C18.712 27.8378 18.6672 27.8529 19.818 27.4925C20.4307 27.2973 21.0584 27.1472 21.6711 26.9219C22.0149 26.8018 22.0597 26.967 22.1643 27.2372C22.7024 28.7237 22.9564 30.2853 23.3898 31.8018C23.6588 32.7478 24.0624 33.6336 24.8246 34.3243C25.7213 35.1201 28.3964 35.2553 29.3081 34.5195C29.9358 34.024 30.2646 33.3183 30.4738 32.5526C30.9072 30.946 31.1613 29.3093 31.4452 27.6877C31.5498 27.1021 31.6694 26.952 32.2074 27.0871C32.8052 27.2372 33.403 27.2673 34.0008 27.3874C34.5986 27.5075 34.7481 27.8228 34.6136 28.3634C34.3595 29.4294 34.1652 30.4955 34.1503 31.6066C34.1353 31.8168 34.1054 32.012 34.0606 32.2072C33.6571 33.9189 34.4791 34.9249 36.138 34.955C37.0347 34.97 37.9314 34.97 38.8281 34.955C40.3226 34.9249 41.1446 34.1291 41.2492 32.6276C41.3837 31.021 41.0101 29.4895 40.5916 27.9429C40.218 26.5766 39.6799 25.2553 39.2465 23.9189C39.0971 23.4685 39.2316 23.3333 39.5903 23.2282C39.7098 23.1982 39.8294 23.1532 39.934 23.1231C40.756 22.8378 41.5182 22.3423 42.4298 22.3123C42.8483 23.1081 43.0725 23.979 43.3116 24.8348C43.9841 27.2673 44.6716 29.6847 44.4474 32.2523C44.2531 34.4595 43.476 36.3363 41.4883 37.5676C40.6663 38.0781 39.7397 38.2282 38.843 38.3634C37.3933 38.5886 35.9138 38.4985 34.494 38.0931C33.6122 37.8378 32.9547 37.1922 32.3569 36.5165C32.2522 36.3964 32.1327 36.1562 31.9235 36.4865C31.1015 37.7628 29.7415 38.1832 28.3815 38.3784C26.9468 38.5736 25.4522 38.5736 24.167 37.6426C23.8083 37.3874 23.898 37.7177 23.8531 37.8829C23.5692 39.1441 23.2553 40.4054 22.6575 41.5766C21.4171 43.994 19.5639 45.7057 16.9635 46.5616C15.4092 47.0721 13.8399 47.4024 12.196 47.3273C10.821 47.2673 9.43115 47.4174 8.07115 47.0721C4.78324 46.2913 2.09313 44.7297 0.613565 41.5466C0.269829 40.7658 0.0755434 39.9249 0.0307083 39.0841C-0.148632 36.5766 0.53884 34.2493 1.31598 31.9369C1.54016 31.2613 1.67466 31.2162 2.37708 31.4715C3.01972 31.6967 3.66236 31.967 4.30499 32.1922C4.64873 32.3123 4.55906 32.4625 4.49928 32.7327C4.33488 33.4384 4.08082 34.1291 3.88653 34.8348C3.63247 35.8559 3.48302 36.9069 3.45313 37.958C3.34851 40.0751 4.40961 41.4715 5.99378 42.6727C6.89049 43.3333 7.89181 43.6036 8.90807 43.7988C9.92433 43.994 10.9854 44.1892 12.0465 44.0841C14.2435 43.8739 16.3955 43.4985 18.2039 42.1021C19.5191 41.0811 20.2364 39.6997 20.3859 38.033C20.4457 37.4925 20.4008 36.952 20.4158 36.4264Z"
            fill="white" />
        <path
            d="M30.5176 18.7087C28.6046 18.7087 27.3044 17.3574 27.2596 15.3904C27.2297 14.0991 27.5734 12.988 28.5449 12.0871C30.4279 10.3303 32.5352 10.9309 33.671 12.8228C34.3435 13.949 34.5677 15.1502 34.1343 16.4415C33.7756 17.5225 32.5053 18.6186 31.3545 18.7087C31.0855 18.7388 30.8016 18.7087 30.5176 18.7087ZM32.1765 14.97C32.2064 14.2042 31.6086 13.5436 30.8315 13.5135C30.8016 13.5135 30.7717 13.5135 30.7268 13.5135C29.86 13.4985 29.2622 14.1442 29.2323 15.0751C29.2174 15.8559 30.0394 16.7267 30.7567 16.6667C31.5787 16.5916 32.1915 15.8709 32.1765 14.97Z"
            fill="white" />
        <path
            d="M62.3066 34.955C62.0825 34.955 61.8732 34.8799 61.8882 34.6246C61.948 33.9189 61.6789 33.2583 61.6491 32.5676C61.5743 31.2312 61.2605 29.9099 60.7374 28.6787C59.9603 26.7718 58.675 25.4805 56.7022 24.97C55.3572 24.6246 54.0271 24.7147 52.8165 25.4655C50.6047 26.8168 49.4539 28.9339 48.871 31.3964C48.7664 31.8318 48.7066 32.2673 48.6767 32.7177C48.5572 34.3994 48.886 35.9159 50.4253 36.997C51.6209 37.8378 52.9062 38.2282 54.2811 38.3634C54.311 37.7027 54.3409 37.2372 54.3409 37.1021C54.3708 36.9069 54.2662 36.7117 54.0719 36.6517C53.4143 36.3514 52.9959 35.8108 52.7418 35.1351C52.4877 34.4595 52.5625 33.7688 52.5625 33.0781C52.5475 31.2312 52.5625 29.3694 52.5625 27.5225C52.5625 27.2222 52.682 27.1171 52.966 27.1321C53.22 27.1622 53.4442 27.1471 53.4143 27.5225C53.3844 27.9279 53.3994 28.3183 53.3994 28.7237C53.3994 30.2102 53.3844 31.6817 53.3844 33.1532C53.3844 33.3484 53.4143 33.5586 53.6534 33.5736C53.9225 33.5886 53.9075 33.3333 53.9075 33.1532C53.9225 32.2222 53.9225 31.2913 53.9225 30.3604C53.9225 29.3844 53.9225 28.4084 53.9374 27.4474C53.9374 26.997 54.2811 27.2072 54.4904 27.1622C54.6996 27.1171 54.7444 27.2523 54.7444 27.4474C54.7444 28.4685 54.7444 29.5045 54.7444 30.5255C54.7444 31.4264 54.7295 32.3123 54.7295 33.1982C54.7295 33.3784 54.7444 33.5736 54.9836 33.5886H55.0284C55.2526 33.5736 55.2825 33.3784 55.2825 33.1982C55.2825 32.3123 55.2675 31.4114 55.2675 30.5255C55.2675 29.5045 55.2675 28.4685 55.2675 27.4474C55.2675 27.2523 55.2974 27.1171 55.5216 27.1622C55.7458 27.2072 56.0745 26.982 56.0745 27.4324C56.0745 28.4084 56.0895 29.3694 56.0895 30.3453C56.0895 31.2763 56.0895 32.2072 56.1044 33.1381C56.1044 33.3183 56.0895 33.5586 56.3585 33.5586C56.5976 33.5435 56.6275 33.3333 56.6275 33.1381C56.6275 31.6517 56.6275 30.1802 56.6126 28.7087C56.6126 28.3033 56.6275 27.9129 56.5976 27.5075C56.5677 27.1471 56.7919 27.1471 57.046 27.1171C57.3449 27.1021 57.4495 27.2072 57.4495 27.5075C57.4495 29.3544 57.4644 31.2162 57.4495 33.0631C57.4495 33.7538 57.5242 34.4444 57.2702 35.1201C57.0161 35.7958 56.5976 36.3213 55.94 36.6366C55.7458 36.6967 55.6411 36.8919 55.671 37.0871C55.686 37.2222 55.7009 37.7177 55.7458 38.4084C56.2838 38.4084 56.8218 38.4084 57.3598 38.4084C57.7036 38.4084 57.7633 38.5886 57.6139 38.8889C57.1954 39.7598 56.6126 40.5255 55.8803 41.1411C55.3422 41.5916 54.7444 41.982 54.1167 42.2823C53.9972 42.3423 53.8776 42.4024 53.7431 42.4625C52.0693 43.1982 50.2908 43.5736 48.4825 43.7988C47.9594 43.8589 47.8398 43.964 47.9295 44.5045C48.0491 45.2252 48.2284 45.9309 48.4077 46.6366C48.5572 47.2523 48.7066 47.3574 49.3044 47.2523C50.0965 47.1021 50.9036 46.982 51.6658 46.7718C52.428 46.5616 53.1901 46.3213 53.9225 46.0661C54.6697 45.8108 55.3871 45.4805 56.0895 45.1051C56.508 44.8649 56.9115 44.6096 57.3 44.3093C57.9128 43.8438 58.6003 43.4535 59.0785 42.8378C59.9603 41.7117 60.6627 40.4805 61.1708 39.1441C61.4398 38.4384 61.4398 38.4234 62.202 38.4234C63.1585 38.4084 64.1299 38.4084 65.0864 38.4084V34.955C64.115 34.97 63.2183 34.955 62.3066 34.955Z"
            fill="white" />
        <path
            d="M67.8503 51.4565C67.7157 51.6367 67.5812 51.8018 67.4318 51.982L67.2226 52.2373C67.1478 52.3274 67.0731 52.4024 66.9984 52.4925L66.55 52.988C66.4006 53.1532 66.2362 53.3033 66.0867 53.4685L65.8476 53.7087C65.7729 53.7838 65.6832 53.8589 65.6085 53.934L65.1153 54.3844C64.9509 54.5346 64.7716 54.6697 64.6072 54.8198L64.3531 55.0301L64.0841 55.2403C62.6494 56.3514 61.0951 57.2673 59.4362 57.988C58.5993 58.3484 57.7474 58.6637 56.8806 58.9189L56.223 59.1141C55.9988 59.1742 55.7896 59.2343 55.5654 59.2793C55.3412 59.3243 55.1171 59.3844 54.9078 59.4295L54.579 59.5045C54.4744 59.5346 54.3549 59.5496 54.2503 59.5646C53.3536 59.7298 52.4569 59.8499 51.5601 59.9249C50.6634 60 49.7518 60.0301 48.8551 60.015C48.6309 60.015 48.4067 60 48.1826 60L47.8388 59.985L47.4951 59.97C47.0467 59.94 46.5984 59.9099 46.15 59.8649C45.2533 59.7748 44.3716 59.6547 43.4898 59.4895C42.6081 59.3243 41.7263 59.1442 40.8595 58.9189L40.2169 58.7388L39.5742 58.5586L38.9316 58.3634L38.3039 58.1532C36.6151 57.5976 34.9711 56.9219 33.372 56.1412C32.5799 55.7508 31.7878 55.3304 31.0256 54.8799C30.2634 54.4445 29.5162 53.949 28.7988 53.4234C30.4428 54.0841 32.0867 54.6547 33.7307 55.1952C35.3747 55.7358 37.0485 56.2012 38.7223 56.5916L39.35 56.7418L39.9777 56.8769L40.6054 57.012L41.2331 57.1322C42.085 57.2823 42.9219 57.4325 43.7738 57.5526C44.6256 57.6727 45.4626 57.7628 46.3144 57.8379C46.7329 57.8679 47.1663 57.8979 47.5848 57.9129L47.8986 57.9279L48.2125 57.943C48.4217 57.943 48.6309 57.958 48.8401 57.958C52.2327 58.003 55.6103 57.5676 58.8234 56.4865C60.4375 55.946 62.0067 55.2553 63.4863 54.4144L63.7703 54.2643L64.0393 54.0991L64.5922 53.7688L65.1452 53.4234C65.2349 53.3634 65.3245 53.3033 65.4142 53.2433L65.6832 53.0631L66.2212 52.6877L66.7443 52.2973C66.834 52.2373 66.9237 52.1772 67.0133 52.1021L67.2674 51.9069C67.5065 51.7268 67.6859 51.5916 67.8503 51.4565Z"
            fill="white" />
        <path
            d="M28.4705 45.2252C28.1268 45.03 27.8129 44.7447 27.5738 44.4294C27.3197 44.0841 27.2301 43.6486 26.976 43.2883C26.692 42.8829 26.1839 42.7027 25.7206 42.8528C25.3021 42.988 25.0032 43.3784 24.9734 43.8138C24.9435 44.3093 25.1676 44.7748 25.5712 45.045C25.6907 45.1351 25.8402 45.2252 25.9747 45.2853C26.9162 45.7357 28.0819 45.7507 29.0982 45.5556C29.0235 45.5706 28.5751 45.2853 28.4705 45.2252ZM25.8103 44.024C25.7804 44.009 25.7654 43.979 25.7356 43.9489C25.6608 43.8739 25.6309 43.7538 25.6608 43.6486C25.6907 43.5586 25.7654 43.4835 25.8701 43.4835C25.9747 43.4685 26.0793 43.5285 26.1092 43.6336C26.1391 43.7237 26.1391 43.8138 26.1839 43.9039C26.2138 43.994 26.2736 44.054 26.3334 44.1141C26.3632 44.1592 26.4081 44.1892 26.4529 44.2192C26.2287 44.2342 25.9896 44.1592 25.8103 44.024Z"
            fill="white" />
        <path
            d="M34.6717 41.5766C34.6119 41.5015 34.5522 41.4264 34.4924 41.3664C34.2831 41.1561 33.9842 41.0661 33.7003 41.1261C33.4462 41.1862 33.237 41.3964 33.2071 41.6667C33.1623 41.9519 33.3117 42.2522 33.5807 42.3724C33.8198 42.4775 34.0739 42.5075 34.313 42.6126C34.5372 42.7177 34.7165 42.8829 34.8809 43.0781C34.9856 43.1832 35.0752 43.3033 35.15 43.4234C35.15 42.7928 35.0154 42.0871 34.6717 41.5766ZM34.0141 41.8919C33.9693 41.8619 33.9245 41.8318 33.8647 41.8168C33.8049 41.8018 33.7601 41.8168 33.7003 41.8018C33.6256 41.7868 33.5807 41.6967 33.5957 41.6216C33.6106 41.5916 33.6256 41.5465 33.6554 41.5315C33.7152 41.5015 33.79 41.5165 33.8348 41.5465C33.8497 41.5616 33.8647 41.5766 33.8796 41.5766C33.9842 41.6817 34.044 41.8018 34.0739 41.9519C34.059 41.9369 34.044 41.9069 34.0141 41.8919Z"
            fill="white" />
        <path
            d="M42.3851 43.9039C42.3402 43.5736 42.1011 43.3183 41.7723 43.2432C41.4137 43.1682 41.055 43.2883 40.8009 43.5435C40.7262 43.6186 40.6515 43.7087 40.5767 43.8138C40.1433 44.4444 39.9939 45.3003 40.0088 46.0661C40.0985 45.9159 40.218 45.7658 40.3376 45.6456C40.5319 45.4054 40.7561 45.2252 41.0251 45.0901C41.309 44.9399 41.6378 44.9249 41.9218 44.7898C42.2655 44.6096 42.4449 44.2643 42.3851 43.9039ZM41.7723 44.0841C41.6976 44.0991 41.6378 44.0841 41.5631 44.0991C41.5033 44.1141 41.4435 44.1441 41.3838 44.1892C41.3539 44.2042 41.324 44.2342 41.2941 44.2643C41.324 44.0991 41.3987 43.9339 41.5183 43.8138C41.5332 43.7988 41.5631 43.7838 41.5781 43.7688C41.6378 43.7237 41.7275 43.7237 41.8022 43.7537C41.862 43.7838 41.9068 43.8589 41.9068 43.9339C41.9068 44.009 41.8471 44.0691 41.7723 44.0841Z"
            fill="white" />
        <path
            d="M134.505 27.0571C133.728 25.9309 132.876 24.8499 131.575 24.4144C129.438 23.7087 127.421 23.9189 125.717 25.6306C124.79 26.5465 124.028 27.6126 123.445 28.7838C122.638 30.3904 121.951 32.027 120.905 33.5135C120.202 34.5345 119.335 34.985 118.14 34.955C117.781 34.955 117.422 34.955 117.049 34.955V38.4384C117.811 38.4384 118.379 38.4234 118.678 38.4084C119.963 38.3483 121.144 37.988 122.07 36.997C122.399 36.6366 122.728 36.1261 123.146 36.036C123.625 35.9309 124.103 36.3964 124.551 36.6667C126.464 37.7477 128.646 38.2883 130.843 38.1982C133.04 38.1231 135.177 36.5315 135.685 34.4144C136.328 31.8018 136.074 29.3243 134.505 27.0571ZM124.76 33.0631C124.775 33.1081 124.775 33.1381 124.79 33.1832C124.775 33.1381 124.76 33.1081 124.76 33.0631ZM133.055 31.4715C133.1 31.6517 133.13 31.8468 133.13 32.042C133.13 32.2372 133.1 32.4324 133.055 32.6126C133.025 32.7027 132.995 32.7928 132.95 32.8829C133.055 33.1381 133.025 33.4234 132.95 33.6486C132.876 33.8589 132.771 34.0691 132.622 34.2492C132.651 34.3544 132.666 34.4595 132.666 34.5646C132.666 34.7748 132.607 34.985 132.502 35.1652C132.278 35.5556 131.844 35.8709 131.217 35.8709H128.9C128.497 35.8709 128.198 35.8108 127.929 35.7207C127.705 35.6306 127.495 35.5255 127.286 35.4054L127.256 35.3904C126.928 35.1802 126.599 34.985 125.896 34.9099C125.388 34.8498 124.94 34.4444 124.94 33.8889V31.2312C124.94 30.6607 125.388 30.2853 125.837 30.1652C126.404 30.015 126.883 29.6396 127.241 29.2342C127.615 28.8138 127.839 28.3784 127.929 28.1532C128.063 27.7778 128.168 27.1321 128.213 26.4264C128.258 25.8108 128.84 25.3303 129.468 25.4805L129.648 25.5255C129.976 25.6006 130.23 25.8408 130.32 26.1712C130.469 26.7117 130.679 27.8378 130.365 29.1592C130.455 29.1441 130.559 29.1291 130.664 29.1291C131.142 29.0841 131.77 29.0841 132.323 29.2643C132.666 29.3844 132.98 29.7147 133.115 30.1051C133.249 30.4955 133.189 30.9159 132.965 31.2613C132.995 31.3063 133.025 31.3964 133.055 31.4715Z"
            fill="white" />
        <path
            d="M42.4746 58.2883C40.98 58.003 39.5154 57.6427 38.0658 57.2072C37.7967 56.7117 37.5277 56.2162 37.3036 55.6907C37.1691 55.4054 37.0495 55.1051 36.9299 54.8048L36.7506 54.3544C36.7207 54.2793 36.6908 54.2042 36.6609 54.1291L36.5862 53.9039C36.4816 53.6036 36.377 53.2883 36.2873 52.988L36.1528 52.5225C36.108 52.3724 36.0631 52.2072 36.0332 52.0571C35.8688 51.4264 35.7343 50.7808 35.6297 50.1351C35.6148 50.7958 35.6297 51.4565 35.6895 52.1171C35.7044 52.2823 35.7194 52.4475 35.7343 52.6126L35.7792 53.1081C35.824 53.4385 35.8688 53.7688 35.9137 54.0991L35.9585 54.3544C35.9735 54.4294 35.9884 54.5195 36.0033 54.5946L36.093 55.0901C36.1677 55.4204 36.2275 55.7508 36.3172 56.0661C36.377 56.2913 36.4367 56.5165 36.4965 56.7568C35.1664 56.3063 33.9559 55.8559 32.9247 55.4204C31.3255 52.4925 29.8609 47.988 34.0754 45.5255C39.62 42.2523 41.8917 54.3394 42.4746 58.2883Z"
            fill="white" />
    </g>
    <defs>
        <clipPath id="clip0_150_7137">
            <rect width="136" height="60" fill="white" />
        </clipPath>
    </defs>
</svg>