<svg width="46" height="46" viewBox="0 0 46 46" fill="none" xmlns="http://www.w3.org/2000/svg">
<path d="M8.64258 15.2908C8.64258 7.92744 15.0021 1.90967 22.9167 1.90967C30.8286 1.90967 37.1881 7.92474 37.1881 15.2908C37.1881 17.1907 36.7623 18.9925 36.0021 20.6258L22.9166 43.3109L9.82614 20.6264C9.07077 18.9921 8.64258 17.1873 8.64258 15.2908ZM12.8947 16.1676C12.8947 21.7737 17.4041 26.3194 22.9789 26.3194C28.5459 26.3194 33.0551 21.7734 33.0551 16.1676C33.0551 10.5697 28.5458 6.02108 22.9789 6.02108C17.4043 6.02108 12.8947 10.5666 12.8947 16.1676Z" fill="#FFBA07" stroke="#434343"/>
<path d="M29.2092 16.2459C29.2092 19.6959 26.4322 22.489 23.0013 22.489C19.5812 22.489 16.7988 19.6959 16.7988 16.2459C16.7988 12.8042 19.5785 10.0083 23.0013 10.0083C26.4297 10.0083 29.2092 12.8044 29.2092 16.2459Z" fill="#FFBA07" stroke="#434343"/>
</svg>
