<svg width="34" height="34" viewBox="0 0 34 34" fill="none" xmlns="http://www.w3.org/2000/svg">
    <path d="M17.084 0.583252C7.99248 0.583252 0.583984 7.99175 0.583984 17.0833C0.583984 26.1748 7.99248 33.5833 17.084 33.5833C26.1755 33.5833 33.584 26.1748 33.584 17.0833C33.584 7.99175 26.1755 0.583252 17.084 0.583252ZM23.684 18.3208H18.3215V23.6833C18.3215 24.3598 17.7605 24.9208 17.084 24.9208C16.4075 24.9208 15.8465 24.3598 15.8465 23.6833V18.3208H10.484C9.80748 18.3208 9.24648 17.7598 9.24648 17.0833C9.24648 16.4068 9.80748 15.8458 10.484 15.8458H15.8465V10.4833C15.8465 9.80675 16.4075 9.24575 17.084 9.24575C17.7605 9.24575 18.3215 9.80675 18.3215 10.4833V15.8458H23.684C24.3605 15.8458 24.9215 16.4068 24.9215 17.0833C24.9215 17.7598 24.3605 18.3208 23.684 18.3208Z" fill="#222224"/>
</svg>
