<svg width="38" height="38" viewBox="0 0 38 38" fill="none" xmlns="http://www.w3.org/2000/svg">
    <path d="M25.5966 9.50002C25.4508 9.50002 25.3327 9.61817 25.3327 9.76391V12.4028C25.3327 12.5485 25.4508 12.6667 25.5966 12.6667H28.2355C28.3812 12.6667 28.4993 12.5485 28.4993 12.4028V9.76391C28.4993 9.61817 28.3812 9.50002 28.2355 9.50002H25.5966ZM25.3327 28.5V27.7084C25.3327 27.2711 25.6871 26.9167 26.1243 26.9167C26.5616 26.9167 26.916 27.2711 26.916 27.7084V28.5H28.4993V27.7084C28.4993 27.2711 28.8538 26.9167 29.291 26.9167C29.7282 26.9167 30.0827 27.2711 30.0827 27.7084V29.2917C30.0827 29.7289 29.7282 30.0834 29.291 30.0834H22.9577C22.5205 30.0834 22.166 29.7289 22.166 29.2917V27.7084C22.166 27.2711 22.5205 26.9167 22.9577 26.9167C23.3949 26.9167 23.7493 27.2711 23.7493 27.7084V28.5H25.3327ZM20.5827 17.4167H21.3743C21.8116 17.4167 22.166 17.7711 22.166 18.2084C22.166 18.6456 21.8116 19 21.3743 19H18.2077C17.7705 19 17.416 18.6456 17.416 18.2084C17.416 17.7711 17.7705 17.4167 18.2077 17.4167H18.9993V15.8334H16.6243C16.1871 15.8334 15.8327 15.4789 15.8327 15.0417C15.8327 14.6045 16.1871 14.25 16.6243 14.25H21.3743C21.8116 14.25 22.166 14.6045 22.166 15.0417C22.166 15.4789 21.8116 15.8334 21.3743 15.8334H20.5827V17.4167ZM28.4993 19H27.7077C27.2705 19 26.916 18.6456 26.916 18.2084C26.916 17.7711 27.2705 17.4167 27.7077 17.4167H28.4993V16.625C28.4993 16.1878 28.8538 15.8334 29.291 15.8334C29.7282 15.8334 30.0827 16.1878 30.0827 16.625V19.7917C30.0827 20.2289 29.7282 20.5834 29.291 20.5834C28.8538 20.5834 28.4993 20.2289 28.4993 19.7917V19ZM20.5827 22.1667H19.791C19.3538 22.1667 18.9993 21.8122 18.9993 21.375C18.9993 20.9378 19.3538 20.5834 19.791 20.5834H21.3743C21.8116 20.5834 22.166 20.9378 22.166 21.375V24.5417C22.166 24.9789 21.8116 25.3334 21.3743 25.3334H16.6243C16.1871 25.3334 15.8327 24.9789 15.8327 24.5417C15.8327 24.1045 16.1871 23.75 16.6243 23.75H20.5827V22.1667ZM25.5966 7.91669H28.2355C29.2557 7.91669 30.0827 8.74372 30.0827 9.76391V12.4028C30.0827 13.423 29.2557 14.25 28.2355 14.25H25.5966C24.5764 14.25 23.7493 13.423 23.7493 12.4028V9.76391C23.7493 8.74372 24.5764 7.91669 25.5966 7.91669ZM9.76324 7.91669H12.4021C13.4223 7.91669 14.2493 8.74372 14.2493 9.76391V12.4028C14.2493 13.423 13.4223 14.25 12.4021 14.25H9.76324C8.74304 14.25 7.91602 13.423 7.91602 12.4028V9.76391C7.91602 8.74372 8.74304 7.91669 9.76324 7.91669ZM9.76324 9.50002C9.6175 9.50002 9.49935 9.61817 9.49935 9.76391V12.4028C9.49935 12.5485 9.6175 12.6667 9.76324 12.6667H12.4021C12.5479 12.6667 12.666 12.5485 12.666 12.4028V9.76391C12.666 9.61817 12.5479 9.50002 12.4021 9.50002H9.76324ZM9.76324 23.75H12.4021C13.4223 23.75 14.2493 24.577 14.2493 25.5972V28.2361C14.2493 29.2563 13.4223 30.0834 12.4021 30.0834H9.76324C8.74304 30.0834 7.91602 29.2563 7.91602 28.2361V25.5972C7.91602 24.577 8.74304 23.75 9.76324 23.75ZM9.76324 25.3334C9.6175 25.3334 9.49935 25.4515 9.49935 25.5972V28.2361C9.49935 28.3819 9.6175 28.5 9.76324 28.5H12.4021C12.5479 28.5 12.666 28.3819 12.666 28.2361V25.5972C12.666 25.4515 12.5479 25.3334 12.4021 25.3334H9.76324ZM20.5827 9.50002H16.6243C16.1871 9.50002 15.8327 9.14558 15.8327 8.70835C15.8327 8.27113 16.1871 7.91669 16.6243 7.91669H21.3743C21.8116 7.91669 22.166 8.27113 22.166 8.70835V11.875C22.166 12.3122 21.8116 12.6667 21.3743 12.6667C20.9371 12.6667 20.5827 12.3122 20.5827 11.875V9.50002ZM16.6243 12.6667C16.1871 12.6667 15.8327 12.3122 15.8327 11.875C15.8327 11.4378 16.1871 11.0834 16.6243 11.0834H18.2077C18.6449 11.0834 18.9993 11.4378 18.9993 11.875C18.9993 12.3122 18.6449 12.6667 18.2077 12.6667H16.6243ZM8.70768 22.1667C8.27046 22.1667 7.91602 21.8122 7.91602 21.375C7.91602 20.9378 8.27046 20.5834 8.70768 20.5834H11.8743C12.3116 20.5834 12.666 20.9378 12.666 21.375C12.666 21.8122 12.3116 22.1667 11.8743 22.1667H8.70768ZM15.041 22.1667C14.6038 22.1667 14.2493 21.8122 14.2493 21.375C14.2493 20.9378 14.6038 20.5834 15.041 20.5834H16.6243C17.0616 20.5834 17.416 20.9378 17.416 21.375C17.416 21.8122 17.0616 22.1667 16.6243 22.1667H15.041ZM17.416 28.5V29.2917C17.416 29.7289 17.0616 30.0834 16.6243 30.0834C16.1871 30.0834 15.8327 29.7289 15.8327 29.2917V27.7084C15.8327 27.2711 16.1871 26.9167 16.6243 26.9167H19.791C20.2282 26.9167 20.5827 27.2711 20.5827 27.7084C20.5827 28.1456 20.2282 28.5 19.791 28.5H17.416ZM14.2493 17.4167H15.041C15.4782 17.4167 15.8327 17.7711 15.8327 18.2084C15.8327 18.6456 15.4782 19 15.041 19H13.4577C13.0205 19 12.666 18.6456 12.666 18.2084V17.4167H11.8743C11.4371 17.4167 11.0827 17.0622 11.0827 16.625C11.0827 16.1878 11.4371 15.8334 11.8743 15.8334H13.4577C13.8949 15.8334 14.2493 16.1878 14.2493 16.625V17.4167ZM7.91602 16.625C7.91602 16.1878 8.27046 15.8334 8.70768 15.8334C9.14491 15.8334 9.49935 16.1878 9.49935 16.625V18.2084C9.49935 18.6456 9.14491 19 8.70768 19C8.27046 19 7.91602 18.6456 7.91602 18.2084V16.625ZM23.7493 16.625C23.7493 16.1878 24.1038 15.8334 24.541 15.8334C24.9782 15.8334 25.3327 16.1878 25.3327 16.625V19.7917C25.3327 20.2289 24.9782 20.5834 24.541 20.5834C24.1038 20.5834 23.7493 20.2289 23.7493 19.7917V16.625ZM26.916 23.75V22.9584C26.916 22.5211 27.2705 22.1667 27.7077 22.1667H29.291C29.7282 22.1667 30.0827 22.5211 30.0827 22.9584C30.0827 23.3956 29.7282 23.75 29.291 23.75H28.4993V24.5417C28.4993 24.9789 28.1449 25.3334 27.7077 25.3334H24.541C24.1038 25.3334 23.7493 24.9789 23.7493 24.5417V22.9584C23.7493 22.5211 24.1038 22.1667 24.541 22.1667C24.9782 22.1667 25.3327 22.5211 25.3327 22.9584V23.75H26.916ZM4.74935 10.2917C4.74935 10.7289 4.39491 11.0834 3.95768 11.0834C3.52046 11.0834 3.16602 10.7289 3.16602 10.2917V7.12502C3.16602 4.93889 4.93822 3.16669 7.12435 3.16669H10.291C10.7282 3.16669 11.0827 3.52113 11.0827 3.95835C11.0827 4.39558 10.7282 4.75002 10.291 4.75002H7.12435C5.81267 4.75002 4.74935 5.81334 4.74935 7.12502V10.2917ZM27.7077 4.75002C27.2705 4.75002 26.916 4.39558 26.916 3.95835C26.916 3.52113 27.2705 3.16669 27.7077 3.16669H30.8743C33.0605 3.16669 34.8327 4.93889 34.8327 7.12502V10.2917C34.8327 10.7289 34.4782 11.0834 34.041 11.0834C33.6038 11.0834 33.2493 10.7289 33.2493 10.2917V7.12502C33.2493 5.81334 32.186 4.75002 30.8743 4.75002H27.7077ZM10.291 33.25C10.7282 33.25 11.0827 33.6045 11.0827 34.0417C11.0827 34.4789 10.7282 34.8334 10.291 34.8334H7.12435C4.93822 34.8334 3.16602 33.0611 3.16602 30.875V27.7084C3.16602 27.2711 3.52046 26.9167 3.95768 26.9167C4.39491 26.9167 4.74935 27.2711 4.74935 27.7084V30.875C4.74935 32.1867 5.81267 33.25 7.12435 33.25H10.291ZM33.2493 27.7084C33.2493 27.2711 33.6038 26.9167 34.041 26.9167C34.4782 26.9167 34.8327 27.2711 34.8327 27.7084V30.875C34.8327 33.0611 33.0605 34.8334 30.8743 34.8334H27.7077C27.2705 34.8334 26.916 34.4789 26.916 34.0417C26.916 33.6045 27.2705 33.25 27.7077 33.25H30.8743C32.186 33.25 33.2493 32.1867 33.2493 30.875V27.7084Z" fill="#222224"/>
</svg>
