<svg width="12" height="12" viewBox="0 0 12 12" fill="none" xmlns="http://www.w3.org/2000/svg">
    <g clip-path="url(#clip0_166_482)">
        <path
            d="M0.62873 11.9906C0.55373 11.9906 0.47873 11.9625 0.42248 11.8969C0.36623 11.8406 0.338105 11.7656 0.34748 11.6813L0.938105 2.60627C0.94748 2.45627 1.06935 2.34377 1.21935 2.34377H3.69436V2.30627C3.69436 1.68752 3.9381 1.11565 4.36935 0.675024C4.80998 0.253149 5.38185 0.00939941 6.0006 0.00939941C7.26623 0.00939941 8.30685 1.04065 8.30685 2.31565C8.30685 2.32502 8.29748 2.3344 8.29748 2.34377V2.35315H10.7819C10.9319 2.35315 11.0537 2.46565 11.0631 2.61565L11.6444 11.625C11.6537 11.6531 11.6537 11.6719 11.6537 11.7C11.6444 11.8594 11.5225 11.9906 11.3631 11.9906H0.62873ZM0.92873 11.4281H11.0631L10.5194 2.91565H8.29748V3.59065H8.30685C8.45685 3.69377 8.54123 3.84377 8.54123 4.01252C8.54123 4.30315 8.30685 4.53752 8.01623 4.53752C7.7256 4.53752 7.49123 4.30315 7.49123 4.01252C7.49123 3.84377 7.5756 3.69377 7.7256 3.59065H7.73498V2.91565H4.25686V3.59065H4.26623C4.41623 3.69377 4.5006 3.84377 4.5006 4.01252C4.5006 4.30315 4.26623 4.53752 3.97561 4.53752C3.68498 4.53752 3.4506 4.30315 3.4506 4.01252C3.4506 3.84377 3.53498 3.69377 3.68498 3.59065H3.69436V2.91565H1.47248L0.92873 11.4281ZM6.0006 0.581274C5.04435 0.581274 4.25686 1.3594 4.25686 2.32502V2.36252H7.75373L7.74435 2.34377V2.32502C7.74435 1.3594 6.95685 0.581274 6.0006 0.581274Z"
            fill="black" />
    </g>
    <defs>
        <clipPath id="clip0_166_482">
            <rect width="12" height="12" fill="white" />
        </clipPath>
    </defs>
</svg>